<?xml version="1.0" standalone="no"?>
<!DOCTYPE svg PUBLIC "-//W3C//DTD SVG 20010904//EN"
 "http://www.w3.org/TR/2001/REC-SVG-20010904/DTD/svg10.dtd">
<svg version="1.0" xmlns="http://www.w3.org/2000/svg"
 width="70.000000pt" height="70.000000pt" viewBox="0 0 70.000000 70.000000"
 preserveAspectRatio="xMidYMid meet">
<metadata>
Created by potrace 1.14, written by Peter Selinger 2001-2017
</metadata>
<g transform="translate(0.000000,70.000000) scale(0.100000,-0.100000)"
fill="#000000" stroke="none">
<path d="M182 443 c-55 -47 -57 -122 -3 -180 36 -40 84 -44 125 -12 50 39 26
119 -37 119 -33 0 -35 -12 -4 -25 15 -7 23 -20 25 -42 3 -32 2 -33 -32 -33
-70 0 -103 96 -50 145 30 28 75 33 94 10 13 -16 40 -20 40 -7 0 20 -42 45 -82
49 -36 4 -48 0 -76 -24z"/>
<path d="M395 454 c-22 -23 -18 -219 5 -219 11 0 16 13 18 48 3 46 4 47 36 47
41 0 66 26 66 68 0 57 -85 95 -125 56z m90 -34 c3 -11 3 -29 0 -41 -10 -30
-69 -23 -73 9 -6 37 5 52 37 52 21 0 32 -6 36 -20z"/>
</g>
</svg>
